<?xml version="1.0" encoding="utf-8"?>
<svg id="master-artboard" viewBox="0 0 1400 980" version="1.1" xmlns="http://www.w3.org/2000/svg" x="0px" y="0px" width="1400px" height="980px" style="enable-background:new 0 0 1400 980;">

<linearGradient id="XMLID_2_" gradientUnits="userSpaceOnUse" x1="0" y1="490" x2="1400" y2="490">
		<stop offset="0" style="stop-color:#EFEBE7"/>
		<stop offset="0.4888" style="stop-color:#E9E4DB"/>
		<stop offset="1" style="stop-color:#C9CACC"/>
	</linearGradient><path d="M 0 0 H 1400 V 980 H 0 V 0 Z" id="XMLID_291_" class="st0" style="fill: url('#XMLID_2_');" transform="matrix(1, 0, 0, 1, 1.4210854715202004e-14, 7.105427357601002e-15)"/><path d="M 1009.599976 688.400024 H 1317.999969 V 767.800026 H 1009.599976 V 688.400024 Z" id="XMLID_228_" class="st1" style="fill: none;" transform="matrix(1, 0, 0, 1, 1.4210854715202004e-14, 7.105427357601002e-15)"/><path id="XMLID_40_" class="st8" d="M119.9,718.1c-0.9,1.5-1.5,3.3-1.5,5.2c0,5.5,4.5,10,10,10c5.5,0,10-4.5,10-10&#10;&#9;&#9;&#9;c0-5.5-4.5-10-10-10c-2.4,0-4.6,0.9-6.3,2.3l-20.4-20.4h66.2c0.7,3.9,4.1,6.8,8.2,6.8c4.6,0,8.4-3.7,8.4-8.4&#10;&#9;&#9;&#9;c0-4.6-3.7-8.4-8.4-8.4c-4.1,0-7.5,2.9-8.2,6.8H75.2l24.6-24.6h87.8c0.7,3.9,4.1,6.8,8.2,6.8c4.6,0,8.4-3.7,8.4-8.4&#10;&#9;&#9;&#9;c0-4.6-3.7-8.4-8.4-8.4c-4.1,0-7.5,2.9-8.2,6.8H98.5l-27.8,27.8H0v3.2h97.1L119.9,718.1z" style="fill: rgb(38, 38, 38); opacity: 0.7;" transform="matrix(1, 0, 0, 1, 2.842170943040401e-14, 1.4210854715202004e-14)"/><path id="XMLID_1023_" class="st8" d="M32.8,575.3c5.5,0,10-4.5,10-10c0-5.5-4.5-10-10-10c-4.9,0-9,3.6-9.8,8.4H0v3.2h23.1&#10;&#9;&#9;&#9;C23.8,571.6,27.9,575.3,32.8,575.3z" style="fill: rgb(38, 38, 38); opacity: 0.7;" transform="matrix(1, 0, 0, 1, 2.842170943040401e-14, 1.4210854715202004e-14)"/><path id="XMLID_1030_" class="st8" d="M90.5,621.2c4.6,0,8.4-3.7,8.4-8.4c0-4.6-3.7-8.4-8.4-8.4c-4.1,0-7.5,2.9-8.2,6.8H0v3.2&#10;&#9;&#9;&#9;h82.2C83,618.3,86.4,621.2,90.5,621.2z" style="fill: rgb(38, 38, 38); opacity: 0.7;" transform="matrix(1, 0, 0, 1, 2.842170943040401e-14, 1.4210854715202004e-14)"/><path id="XMLID_1031_" class="st8" d="M11,658.8c5.5,0,10-4.5,10-10c0-5.5-4.5-10-10-10c-4.9,0-9,3.6-9.8,8.4H0v3.2h1.2&#10;&#9;&#9;&#9;C1.9,655.2,6,658.8,11,658.8z" style="fill: rgb(38, 38, 38); opacity: 0.7;" transform="matrix(1, 0, 0, 1, 2.842170943040401e-14, 1.4210854715202004e-14)"/><path id="XMLID_1032_" class="st8" d="M138.5,240.7c0.8,3.8,4.2,6.6,8.2,6.6c4.6,0,8.4-3.7,8.4-8.4c0-4.6-3.7-8.4-8.4-8.4&#10;&#9;&#9;&#9;c-4.1,0-7.6,3-8.2,7H79.9L0,317.5v4.5l81.3-81.3H138.5z" style="fill: rgb(38, 38, 38); opacity: 0.7;" transform="matrix(1, 0, 0, 1, 2.842170943040401e-14, 1.4210854715202004e-14)"/><path id="XMLID_1033_" class="st8" d="M247.6,150.4l66.2,66.2h118.7l27.7,27.7h162.6c0.7,3.9,4.1,6.8,8.2,6.8&#10;&#9;&#9;&#9;c4.6,0,8.4-3.7,8.4-8.4c0-4.6-3.7-8.4-8.4-8.4c-4.1,0-7.5,2.9-8.2,6.8H461.5L437,216.6h33.7c1.3,2.9,4.2,5,7.6,5&#10;&#9;&#9;&#9;c4.6,0,8.4-3.7,8.4-8.4c0-4.6-3.7-8.4-8.4-8.4c-3.1,0-5.8,1.7-7.2,4.2h-111l27.7-27.7h115.3l30,30h36.7c0.7,3.9,4.1,6.8,8.2,6.8&#10;&#9;&#9;&#9;c4.6,0,8.4-3.7,8.4-8.4c0-4.6-3.7-8.4-8.4-8.4c-4.1,0-7.5,2.9-8.2,6.8h-35.4l-26.9-26.9h72.7c0.7,3.9,4.1,6.8,8.2,6.8&#10;&#9;&#9;&#9;c4.6,0,8.4-3.7,8.4-8.4s-3.7-8.4-8.4-8.4c-4.1,0-7.5,2.9-8.2,6.8H386.5l-30.9,30.9h-38.7l-66.2-66.2H55.4l55.7-55.7h187.6&#10;&#9;&#9;&#9;l63.9,63.9h177c0.8,4.7,4.9,8.2,9.8,8.2c5.5,0,10-4.5,10-10c0-5.5-4.5-10-10-10c-5,0-9.1,3.7-9.8,8.5h-74.2l33.9-33.9h70.8&#10;&#9;&#9;&#9;c0.7,3.9,4.1,6.8,8.2,6.8c4.6,0,8.4-3.7,8.4-8.4c0-4.6-3.7-8.4-8.4-8.4c-4.1,0-7.5,2.9-8.2,6.8h-72.1l-37.1,37.1h-96.9l-60.7-60.7&#10;&#9;&#9;&#9;h65.5l28.7,28.7h54.4c0.8,4.7,4.8,8.4,9.8,8.4c5.5,0,10-4.5,10-10c0-5.5-4.5-10-10-10c-4.9,0-9,3.6-9.8,8.4h-53.1l-25.6-25.6&#10;&#9;&#9;&#9;h253.6c1.4,2.7,4.2,4.6,7.4,4.6c4.6,0,8.4-3.7,8.4-8.4c0-4.6-3.7-8.4-8.4-8.4c-3.3,0-6,1.9-7.4,4.6H108L0,187.6v10.7l47.8-47.8&#10;&#9;&#9;&#9;H247.6z" style="fill: rgb(38, 38, 38); opacity: 0.7;" transform="matrix(1, 0, 0, 1, 2.842170943040401e-14, 1.4210854715202004e-14)"/><path id="XMLID_1034_" class="st8" d="M184.7,211.2c5.5,0,10-4.5,10-10c0-5.5-4.5-10-10-10c-4.9,0-9,3.6-9.8,8.4h-65.2l24.6-24.6&#10;&#9;&#9;&#9;h84.1c0.7,3.9,4.1,6.8,8.2,6.8c4.6,0,8.4-3.7,8.4-8.4c0-4.6-3.7-8.4-8.4-8.4c-4.1,0-7.5,2.9-8.2,6.8H133l-27.8,27.8H0v3.2h174.9&#10;&#9;&#9;&#9;C175.6,207.5,179.7,211.2,184.7,211.2z" style="fill: rgb(38, 38, 38); opacity: 0.7;" transform="matrix(1, 0, 0, 1, 2.842170943040401e-14, 1.4210854715202004e-14)"/><path id="XMLID_1035_" class="st8" d="M277.4,329.4c0.7,3.9,4.1,6.8,8.2,6.8c4.6,0,8.4-3.7,8.4-8.4c0-4.6-3.7-8.4-8.4-8.4&#10;&#9;&#9;&#9;c-4.1,0-7.5,2.9-8.2,6.8H64.3l45.9-45.9h268.1l40.5,40.5h71.4c0.7,3.9,4.1,6.8,8.2,6.8c4.6,0,8.4-3.7,8.4-8.4&#10;&#9;&#9;&#9;c0-4.6-3.7-8.4-8.4-8.4c-4.1,0-7.5,2.9-8.2,6.8h-70.1l-37.4-37.4h249c0.7,4.8,4.8,8.5,9.8,8.5c5.5,0,10-4.5,10-10&#10;&#9;&#9;&#9;c0-5.5-4.5-10-10-10c-4.9,0-9,3.6-9.8,8.2H200l36.6-36.6h51.7l21.7,21.7h39.7c0.8,3.8,4.2,6.7,8.2,6.7c4.6,0,8.4-3.7,8.4-8.4&#10;&#9;&#9;&#9;c0-4.6-3.7-8.4-8.4-8.4c-4.1,0-7.5,3-8.2,6.9h-38.4l-21.7-21.7h-54.3l-39.8,39.8h-86.6L0,386.1v4.5l61.1-61.1H277.4z" style="fill: rgb(38, 38, 38); opacity: 0.7;" transform="matrix(1, 0, 0, 1, 2.842170943040401e-14, 1.4210854715202004e-14)"/><path id="XMLID_1036_" class="st8" d="M714.7,408.7c-3.5,0-6.5,2.2-7.7,5.2H631l-67.4-67.4h-50.1l43.4-43.4h50.5&#10;&#9;&#9;&#9;c0.7,3.9,4.1,6.8,8.2,6.8c4.6,0,8.4-3.7,8.4-8.4c0-4.6-3.7-8.4-8.4-8.4c-4.1,0-7.5,2.9-8.2,6.8h-51.8L509,346.5H297.5L191,453&#10;&#9;&#9;&#9;H11.4l69.5-69.5h10.8l40.5,40.5h34.3c0.8,4.7,4.8,8.4,9.8,8.4c5.5,0,10-4.5,10-10c0-5.5-4.5-10-10-10c-4.9,0-9,3.6-9.8,8.4h-33&#10;&#9;&#9;&#9;l-37.3-37.3H189c1.5,2.5,4.1,4.1,7.2,4.1c4.6,0,8.4-3.7,8.4-8.4c0-4.6-3.7-8.4-8.4-8.4c-3.4,0-6.4,2.1-7.7,5h-45.1l24-24h67.3&#10;&#9;&#9;&#9;c0.8,4.7,4.8,8.4,9.8,8.4c5.5,0,10-4.5,10-10c0-5.5-4.5-10-10-10c-4.9,0-9,3.6-9.8,8.4h-68.6l-27.2,27.2H77.8L0.7,453H0v7.6h59&#10;&#9;&#9;&#9;L80.4,482c-1.4,1.7-2.3,3.9-2.3,6.3c0,5.5,4.5,10,10,10s10-4.5,10-10c0-5.5-4.5-10-10-10c-1.9,0-3.7,0.6-5.3,1.5l-19.2-19.2h130.6&#10;&#9;&#9;&#9;l60.3-60.4l11.9,11.9c-1,1.4-1.6,3.1-1.6,4.9c0,4.6,3.7,8.4,8.4,8.4c4.6,0,8.4-3.7,8.4-8.4c0-4.6-3.7-8.4-8.4-8.4&#10;&#9;&#9;&#9;c-1.6,0-3.2,0.5-4.5,1.3l-12-12l43.9-43.9h132.3l33.9,33.9c-1.1,1.6-1.7,3.5-1.7,5.5c0,5.5,4.5,10,10,10c5.5,0,10-4.5,10-10&#10;&#9;&#9;&#9;c0-5.5-4.5-10-10-10c-2.3,0-4.4,0.8-6.1,2.1l-31.6-31.6h123.1l67.4,67.4h79.7c1.5,2.4,4.1,3.9,7.1,3.9c4.6,0,8.4-3.7,8.4-8.4&#10;&#9;&#9;&#9;C723,412.4,719.3,408.7,714.7,408.7z" style="fill: rgb(38, 38, 38); opacity: 0.7;" transform="matrix(1, 0, 0, 1, 2.842170943040401e-14, 1.4210854715202004e-14)"/><path id="XMLID_1037_" class="st8" d="M349.6,336.2c4.6,0,8.4-3.7,8.4-8.4c0-4.6-3.7-8.4-8.4-8.4c-1.7,0-3.3,0.5-4.7,1.4&#10;&#9;&#9;&#9;l-18.4-18.4h-132c-0.8-4.7-4.8-8.4-9.8-8.4c-5.5,0-10,4.5-10,10c0,5.5,4.5,10,10,10c4.9,0,9-3.6,9.8-8.4h130.7l17.5,17.5&#10;&#9;&#9;&#9;c-0.9,1.3-1.4,2.9-1.4,4.7C341.2,332.5,345,336.2,349.6,336.2z" style="fill: rgb(38, 38, 38); opacity: 0.7;" transform="matrix(1, 0, 0, 1, 2.842170943040401e-14, 1.4210854715202004e-14)"/><path id="XMLID_1038_" class="st8" d="M338.4,188.1c4.6,0,8.4-3.7,8.4-8.4s-3.7-8.4-8.4-8.4c-1.7,0-3.3,0.5-4.7,1.4l-59.4-59.4&#10;&#9;&#9;&#9;H170.8c-0.8-4.7-4.8-8.4-9.8-8.4c-5.5,0-10,4.5-10,10c0,5.5,4.5,10,10,10c4.9,0,9-3.6,9.8-8.4h102.2l58.4,58.4&#10;&#9;&#9;&#9;c-0.9,1.3-1.4,2.9-1.4,4.7C330.1,184.4,333.8,188.1,338.4,188.1z" style="fill: rgb(38, 38, 38); opacity: 0.7;" transform="matrix(1, 0, 0, 1, 2.842170943040401e-14, 1.4210854715202004e-14)"/><path id="XMLID_1039_" class="st8" d="M60.5,641.5c4.6,0,8.4-3.7,8.4-8.4c0-4.6-3.7-8.4-8.4-8.4c-4.1,0-7.5,2.9-8.2,6.8H0v3.2&#10;&#9;&#9;&#9;h52.3C53.1,638.6,56.4,641.5,60.5,641.5z" style="fill: rgb(38, 38, 38); opacity: 0.7;" transform="matrix(1, 0, 0, 1, 2.842170943040401e-14, 1.4210854715202004e-14)"/><path id="XMLID_1040_" class="st8" d="M13.1,580.7c-4.6,0-8.4,3.7-8.4,8.4c0,4.6,3.7,8.4,8.4,8.4c4.1,0,7.5-2.9,8.2-6.8h72.2&#10;&#9;&#9;&#9;l58.8,58.8h69.1c0.8,4.7,4.8,8.4,9.8,8.4c5.5,0,10-4.5,10-10c0-5.5-4.5-10-10-10c-4.9,0-9,3.6-9.8,8.4h-67.8l-58.8-58.8H21.3&#10;&#9;&#9;&#9;C20.6,583.6,17.2,580.7,13.1,580.7z" style="fill: rgb(38, 38, 38); opacity: 0.7;" transform="matrix(1, 0, 0, 1, 2.842170943040401e-14, 1.4210854715202004e-14)"/><path id="XMLID_1041_" class="st8" d="M496.3,699.9c5.5,0,10-4.5,10-10c0-5.5-4.5-10-10-10c-2.4,0-4.5,0.9-6.2,2.3L458,650.2&#10;&#9;&#9;&#9;H315.6c-0.7-3.9-4.1-6.8-8.2-6.8c-4.6,0-8.4,3.7-8.4,8.4c0,4.6,3.7,8.4,8.4,8.4c4.1,0,7.5-2.9,8.2-6.8h141.1l31.3,31.3&#10;&#9;&#9;&#9;c-1,1.5-1.6,3.4-1.6,5.3C486.4,695.5,490.8,699.9,496.3,699.9z" style="fill: rgb(38, 38, 38); opacity: 0.7;" transform="matrix(1, 0, 0, 1, 2.842170943040401e-14, 1.4210854715202004e-14)"/><path id="XMLID_1042_" class="st8" d="M62.6,713.4c-5.5,0-10,4.5-10,10c0,5.5,4.5,10,10,10c2.3,0,4.3-0.8,6-2l15.6,15.6h51.6&#10;&#9;&#9;&#9;l15.5-15.5c1.3,0.9,2.9,1.4,4.7,1.4c4.6,0,8.4-3.7,8.4-8.4c0-4.6-3.7-8.4-8.4-8.4c-4.6,0-8.4,3.7-8.4,8.4c0,1.7,0.5,3.3,1.4,4.7&#10;&#9;&#9;&#9;l-14.5,14.5h-49L70.8,729c1.1-1.6,1.8-3.5,1.8-5.6C72.6,717.8,68.1,713.4,62.6,713.4z" style="fill: rgb(38, 38, 38); opacity: 0.7;" transform="matrix(1, 0, 0, 1, 2.842170943040401e-14, 1.4210854715202004e-14)"/><path id="XMLID_1043_" class="st8" d="M634.1,888.3c-3.3,0-6,1.9-7.4,4.6H285.1l63.5-63.5H385l48.2,48.2h32.5&#10;&#9;&#9;&#9;c0.8,4.7,4.8,8.4,9.8,8.4c5.5,0,10-4.5,10-10c0-5.5-4.5-10-10-10c-4.9,0-9,3.6-9.8,8.4h-31.2l-45-45h124.3l29.1,29.1H573&#10;&#9;&#9;&#9;c0.9,3.6,4.2,6.4,8.1,6.4c4.6,0,8.4-3.7,8.4-8.4c0-4.6-3.7-8.4-8.4-8.4c-4.2,0-7.7,3.1-8.2,7.2h-28.7L515,826.2H347.3l-66.7,66.7&#10;&#9;&#9;&#9;H137.4l24.8-24.8h106.8c0.7,3.9,4.1,6.8,8.2,6.8c4.6,0,8.4-3.7,8.4-8.4c0-4.6-3.7-8.4-8.4-8.4c-4.1,0-7.5,2.9-8.2,6.8H160.9&#10;&#9;&#9;&#9;l-27.9,27.9h-21.8l-39.4-39.4h122.8c0.8,4.7,4.8,8.4,9.8,8.4c5.5,0,10-4.5,10-10c0-5.5-4.5-10-10-10c-4.9,0-9,3.6-9.8,8.4h-126&#10;&#9;&#9;&#9;L0,781.8v10.7l106.9,106.9l1.1,1.1h518.7c1.4,2.7,4.2,4.6,7.4,4.6c4.6,0,8.4-3.7,8.4-8.4C642.5,892,638.8,888.3,634.1,888.3z" style="fill: rgb(38, 38, 38); opacity: 0.7;" transform="matrix(1, 0, 0, 1, 2.842170943040401e-14, 1.4210854715202004e-14)"/><path id="XMLID_1044_" class="st8" d="M132.3,836.8h121.8l25.7-25.7h51.2c1.5,2.3,4.1,3.8,7,3.8c4.6,0,8.4-3.7,8.4-8.4&#10;&#9;&#9;&#9;c0-4.6-3.7-8.4-8.4-8.4c-3.6,0-6.6,2.2-7.8,5.4h-53.5L251,829.3h-66.2l21.1-21.1c1.3,0.9,2.9,1.4,4.7,1.4c4.6,0,8.4-3.7,8.4-8.4&#10;&#9;&#9;&#9;c0-4.6-3.7-8.4-8.4-8.4c-4.6,0-8.4,3.7-8.4,8.4c0,1.7,0.5,3.3,1.4,4.7l-23.3,23.3h-44.9l-28-28l42.3-42.3l13.7,13.7h77.5&#10;&#9;&#9;&#9;c0.7,3.9,4.1,6.8,8.2,6.8c4.6,0,8.4-3.7,8.4-8.4c0-4.6-3.7-8.4-8.4-8.4c-4.1,0-7.5,2.9-8.2,6.8h-76.1L152,756.7l28.5-28.5h81.7&#10;&#9;&#9;&#9;l50.3,50.3h101.7l26.2,26.2h42c0.7,3.9,4.1,6.8,8.2,6.8c4.6,0,8.4-3.7,8.4-8.4s-3.7-8.4-8.4-8.4c-4.1,0-7.5,2.9-8.2,6.8h-40.7&#10;&#9;&#9;&#9;l-23-23h114.1l50.6,50.6h20.3c0.7,4,4.1,7,8.2,7c4.6,0,8.4-3.7,8.4-8.4c0-4.6-3.7-8.4-8.4-8.4c-4,0-7.3,2.8-8.2,6.6h-19.1&#10;&#9;&#9;&#9;l-47.4-47.4h24c1.5,3.7,5,6.3,9.2,6.3c5.5,0,10-4.5,10-10c0-5.5-4.5-10-10-10c-4.1,0-7.6,2.5-9.1,6h-80.5l41.1-41.1h65.9&#10;&#9;&#9;&#9;c0.7,3.9,4.1,6.8,8.2,6.8c4.6,0,8.4-3.7,8.4-8.4c0-4.6-3.7-8.4-8.4-8.4c-4.1,0-7.5,2.9-8.2,6.8h-67.2L476.3,771H348.8l19.9-19.9&#10;&#9;&#9;&#9;h68.5c0.7,3.9,4.1,6.8,8.2,6.8c4.6,0,8.4-3.7,8.4-8.4c0-4.6-3.7-8.4-8.4-8.4c-4.1,0-7.5,2.9-8.2,6.8h-69.8L344.4,771h-28.7&#10;&#9;&#9;&#9;l-42.8-42.8h107.9c1.5,3.6,5,6.2,9.2,6.2c5.5,0,10-4.5,10-10c0-5.5-4.5-10-10-10c-4.2,0-7.7,2.6-9.2,6.2H228.6l16.9-16.9h66.1&#10;&#9;&#9;&#9;c0.7,3.9,4.1,6.8,8.2,6.8c4.6,0,8.4-3.7,8.4-8.4c0-4.6-3.7-8.4-8.4-8.4c-4.1,0-7.5,2.9-8.2,6.8h-67.4l-20.1,20.1h-46.7l-75.3,75.3&#10;&#9;&#9;&#9;L60.2,754H10.6l16.9-16.9c1.3,0.9,2.9,1.4,4.7,1.4c4.6,0,8.4-3.7,8.4-8.4c0-4.6-3.7-8.4-8.4-8.4c-4.6,0-8.4,3.7-8.4,8.4&#10;&#9;&#9;&#9;c0,1.7,0.5,3.3,1.4,4.7L6.1,754H0v7.6h57.1L132.3,836.8z" style="fill: rgb(38, 38, 38); opacity: 0.7;" transform="matrix(1, 0, 0, 1, 2.842170943040401e-14, 1.4210854715202004e-14)"/><path id="XMLID_1045_" class="st8" d="M537.3,537.1c0-5.5-4.5-10-10-10c-4.9,0-9,3.6-9.8,8.3h-45.9l-36.3,36.3h-20.9&#10;&#9;&#9;&#9;c-0.7-3.9-4.1-6.8-8.2-6.8c-4.6,0-8.4,3.7-8.4,8.4c0,4.6,3.7,8.4,8.4,8.4c4.1,0,7.5-2.9,8.2-6.8h22.3l36.3-36.3h44.6&#10;&#9;&#9;&#9;c0.7,4.8,4.8,8.5,9.8,8.5C532.8,547,537.3,542.5,537.3,537.1z" style="fill: rgb(38, 38, 38); opacity: 0.7;" transform="matrix(1, 0, 0, 1, 2.842170943040401e-14, 1.4210854715202004e-14)"/><path id="XMLID_1046_" class="st8" d="M512.2,441.7h-44.1c-0.8-4.7-4.8-8.4-9.8-8.4c-5.5,0-10,4.5-10,10c0,5.5,4.5,10,10,10&#10;&#9;&#9;&#9;c4.9,0,9-3.6,9.8-8.4h45.4l26.3-26.3h22c0.7,3.9,4.1,6.8,8.2,6.8c4.6,0,8.4-3.7,8.4-8.4c0-4.6-3.7-8.4-8.4-8.4&#10;&#9;&#9;&#9;c-4.1,0-7.5,2.9-8.2,6.8h-23.3L512.2,441.7z" style="fill: rgb(38, 38, 38); opacity: 0.7;" transform="matrix(1, 0, 0, 1, 2.842170943040401e-14, 1.4210854715202004e-14)"/><path id="XMLID_1047_" class="st8" d="M239.2,219.6h-33.4l-38.3,38.3h-54.5c-0.5-5-4.7-8.9-9.9-8.9c-5.5,0-10,4.5-10,10&#10;&#9;&#9;&#9;c0,5.5,4.5,10,10,10c4.7,0,8.7-3.3,9.7-7.8h55.9l38.3-38.3h32.1c0.7,3.9,4.1,6.8,8.2,6.8c4.6,0,8.4-3.7,8.4-8.4&#10;&#9;&#9;&#9;c0-4.6-3.7-8.4-8.4-8.4C243.4,212.8,240,215.7,239.2,219.6z" style="fill: rgb(38, 38, 38); opacity: 0.7;" transform="matrix(1, 0, 0, 1, 2.842170943040401e-14, 1.4210854715202004e-14)"/><path id="XMLID_1048_" class="st8" d="M503.8,556.7c0.7,3.9,4.1,6.8,8.2,6.8c4.6,0,8.4-3.7,8.4-8.4c0-4.6-3.7-8.4-8.4-8.4&#10;&#9;&#9;&#9;c-4.1,0-7.5,2.9-8.2,6.8h-20.4L441.9,595c-1.7-1.3-3.7-2.1-6-2.1c-5.5,0-10,4.5-10,10c0,5.5,4.5,10,10,10c5.5,0,10-4.5,10-10&#10;&#9;&#9;&#9;c0-2.1-0.6-4-1.7-5.6l40.5-40.5H503.8z" style="fill: rgb(38, 38, 38); opacity: 0.7;" transform="matrix(1, 0, 0, 1, 2.842170943040401e-14, 1.4210854715202004e-14)"/><path id="XMLID_1049_" class="st8" d="M13.1,539.4c4.6,0,8.4-3.7,8.4-8.4c0-4.6-3.7-8.4-8.4-8.4c-4.1,0-7.5,2.9-8.2,6.8H0v3.2h4.9&#10;&#9;&#9;&#9;C5.6,536.4,9,539.4,13.1,539.4z" style="fill: rgb(38, 38, 38); opacity: 0.7;" transform="matrix(1, 0, 0, 1, 2.842170943040401e-14, 1.4210854715202004e-14)"/><path id="XMLID_1050_" class="st8" d="M7.8,483.2c0-4.4-3.4-8-7.8-8.3v16.7C4.4,491.3,7.8,487.7,7.8,483.2z" style="fill: rgb(38, 38, 38); opacity: 0.7;" transform="matrix(1, 0, 0, 1, 2.842170943040401e-14, 1.4210854715202004e-14)"/><path id="XMLID_1051_" class="st8" d="M680.8,451.4c-5,0-9.1,3.7-9.8,8.6l-106.7-0.1l26.2-26.2c1.6,1,3.5,1.7,5.5,1.7&#10;&#9;&#9;&#9;c5.5,0,10-4.5,10-10c0-5.5-4.5-10-10-10c-5.5,0-10,4.5-10,10c0,2.3,0.8,4.4,2.2,6.1l-28.4,28.4l-133.1-0.1l-41.1-40.7H506&#10;&#9;&#9;&#9;l30.3-30.3c1.3,0.9,2.9,1.4,4.6,1.4c4.6,0,8.4-3.7,8.4-8.4c0-4.6-3.7-8.4-8.4-8.4s-8.4,3.7-8.4,8.4c0,1.8,0.5,3.4,1.5,4.7&#10;&#9;&#9;&#9;l-29.3,29.3H346.4l26.9-26.9h34.8c0.7,3.9,4.1,6.8,8.2,6.8c4.6,0,8.4-3.7,8.4-8.4c0-4.6-3.7-8.4-8.4-8.4c-4.1,0-7.5,2.9-8.2,6.8&#10;&#9;&#9;&#9;H372l-30.1,30.1H308L197.9,526h-95.2l36.1-36.1h51.7c0.7,3.9,4.1,6.8,8.2,6.8c4.6,0,8.4-3.7,8.4-8.4c0-4.6-3.7-8.4-8.4-8.4&#10;&#9;&#9;&#9;c-4.1,0-7.5,2.9-8.2,6.8h-53L98.2,526H69.6l-22.1-22.1H0v7.6h44.4l122.4,122.4h80.6l41.2,41.2h113.2l32.9,32.9h139.1&#10;&#9;&#9;&#9;c0.8,4.7,4.9,8.3,9.8,8.3c5.5,0,10-4.5,10-10c0-5.5-4.5-10-10-10c-5,0-9,3.6-9.8,8.4h-62.7l37.4-37.4H591c0.7,3.9,4.1,6.8,8.2,6.8&#10;&#9;&#9;&#9;c4.6,0,8.4-3.7,8.4-8.4c0-4.6-3.7-8.4-8.4-8.4c-4.1,0-7.5,2.9-8.2,6.8h-43.7l-40.6,40.6H436l-29.8-29.8h34.2&#10;&#9;&#9;&#9;c0.7,3.9,4.1,6.8,8.2,6.8c4.6,0,8.4-3.7,8.4-8.4c0-4.6-3.7-8.4-8.4-8.4c-4.1,0-7.5,2.9-8.2,6.8H289.9l-38-38h282.7&#10;&#9;&#9;&#9;c1.4,2.7,4.2,4.5,7.4,4.5c4.6,0,8.4-3.7,8.4-8.4c0-4.6-3.7-8.4-8.4-8.4c-3.3,0-6.1,1.9-7.5,4.6H445l49.2-49.2h43l68.3,68.3h26.8&#10;&#9;&#9;&#9;c0.7,3.9,4.1,6.8,8.2,6.8c4.6,0,8.4-3.7,8.4-8.4c0-4.6-3.7-8.4-8.4-8.4c-4.1,0-7.5,2.9-8.2,6.8h-25.5l-65.1-65.1h45&#10;&#9;&#9;&#9;c1.5,3.6,5,6.2,9.2,6.2c5.5,0,10-4.5,10-10c0-5.5-4.5-10-10-10c-4.2,0-7.7,2.6-9.2,6.2h-95.7l-56.8,56.8H283.1l19.6-19.6&#10;&#9;&#9;&#9;c1.3,0.9,2.9,1.4,4.7,1.4c4.6,0,8.4-3.7,8.4-8.4c0-4.6-3.7-8.4-8.4-8.4c-4.6,0-8.4,3.7-8.4,8.4c0,1.7,0.5,3.3,1.4,4.7l-21.8,21.8&#10;&#9;&#9;&#9;H169.9l-51.4-51.4h92.1h2.9h162.4l23.3,23.3c-0.9,1.3-1.4,2.9-1.4,4.7c0,4.6,3.7,8.4,8.4,8.4c4.6,0,8.4-3.7,8.4-8.4&#10;&#9;&#9;&#9;c0-4.6-3.7-8.4-8.4-8.4c-1.7,0-3.3,0.5-4.7,1.4l-24.2-24.2H216.7l33.1-33.1h178c0.7,3.9,4.1,6.8,8.2,6.8c4.6,0,8.4-3.7,8.4-8.4&#10;&#9;&#9;&#9;c0-4.6-3.7-8.4-8.4-8.4c-4.1,0-7.5,2.9-8.2,6.8h-39.9l19.6-19.6c1.6,1.1,3.5,1.7,5.6,1.7c5.5,0,10-4.5,10-10c0-5.5-4.5-10-10-10&#10;&#9;&#9;&#9;c-5.5,0-10,4.5-10,10c0,2.3,0.8,4.3,2.1,6l-21.8,21.8H253l24.4-24.4h84l20-20h57.8c0.7,3.9,4.1,6.8,8.2,6.8c4.6,0,8.4-3.7,8.4-8.4&#10;&#9;&#9;&#9;c0-4.6-3.7-8.4-8.4-8.4c-4.1,0-7.5,2.9-8.2,6.8H380l-20,20h-44.5l45.3-45.3h19.5c0.7,3.9,4.1,6.8,8.2,6.8c4.6,0,8.4-3.7,8.4-8.4&#10;&#9;&#9;&#9;c0-4.6-3.7-8.4-8.4-8.4c-4.1,0-7.5,2.9-8.2,6.8h-20.8l-48.4,48.4H276l-63.8,63.8h-1.6h-95.3l-42.6-42.6h126.5l73.9-73.9l20,20&#10;&#9;&#9;&#9;c-1.2,1.7-2,3.7-2,5.9c0,5.5,4.5,10,10,10c5.5,0,10-4.5,10-10c0-5.5-4.5-10-10-10c-2.1,0-4.1,0.7-5.7,1.8L275.4,453l33.9-33.9H381&#10;&#9;&#9;&#9;l44.3,43.9l29.7,0l53.2,53.2h25.1l33.3,33.3h81.9c0.8,4.7,4.8,8.4,9.8,8.4c5.5,0,10-4.5,10-10c0-5.5-4.5-10-10-10&#10;&#9;&#9;&#9;c-4.9,0-9,3.6-9.8,8.4H568l-30.2-30.2h39.7l29.8-29.8h21.9c0.9,3.7,4.2,6.4,8.1,6.4c4.6,0,8.4-3.7,8.4-8.4c0-4.6-3.7-8.4-8.4-8.4&#10;&#9;&#9;&#9;c-4.2,0-7.6,3.1-8.2,7.1h-23l-29.8,29.8h-66.7l-50-50l211.5,0.2c0.9,4.6,4.9,8.2,9.8,8.2c5.5,0,10-4.5,10-10&#10;&#9;&#9;&#9;C690.7,455.9,686.3,451.4,680.8,451.4z" style="fill: rgb(38, 38, 38); opacity: 0.7;" transform="matrix(1, 0, 0, 1, 2.842170943040401e-14, 1.4210854715202004e-14)"/><path id="XMLID_1052_" class="st8" d="M35.1,333c5.5,0,10-4.5,10-10c0-5.5-4.5-10-10-10c-5.5,0-10,4.5-10,10&#10;&#9;&#9;&#9;c0,2.1,0.7,4.1,1.8,5.7l-27,27v4.5L29.2,331C30.8,332.2,32.9,333,35.1,333z" style="fill: rgb(38, 38, 38); opacity: 0.7;" transform="matrix(1, 0, 0, 1, 2.842170943040401e-14, 1.4210854715202004e-14)"/><path id="XMLID_1053_" class="st8" d="M41.2,241.9c5.5,0,10-4.5,10-10c0-5.5-4.5-10-10-10c-5.5,0-10,4.5-10,10&#10;&#9;&#9;&#9;c0,2.2,0.7,4.2,1.9,5.8L0,270.9v4.5L35.4,240C37.1,241.2,39,241.9,41.2,241.9z" style="fill: rgb(38, 38, 38); opacity: 0.7;" transform="matrix(1, 0, 0, 1, 2.842170943040401e-14, 1.4210854715202004e-14)"/><path id="XMLID_1054_" class="st8" d="M176,591.4c-4.6,0-8.4,3.7-8.4,8.4c0,4.6,3.7,8.4,8.4,8.4c1.7,0,3.2-0.5,4.5-1.3l10.5,10.5&#10;&#9;&#9;&#9;h66.8l9.5-9.5c1.6,1.2,3.6,1.9,5.8,1.9c5.5,0,10-4.5,10-10c0-5.5-4.5-10-10-10c-5.5,0-10,4.5-10,10c0,2.2,0.7,4.2,1.9,5.8&#10;&#9;&#9;&#9;l-8.6,8.6h-64.2l-9.5-9.5c1-1.4,1.6-3,1.6-4.9C184.4,595.2,180.6,591.4,176,591.4z" style="fill: rgb(38, 38, 38); opacity: 0.7;" transform="matrix(1, 0, 0, 1, 2.842170943040401e-14, 1.4210854715202004e-14)"/><path d="M 1400 490.79998779296875 L 1383.199951171875 490.79998779296875 L 1366.5999755859375 461.8999938964844 L 1383.199951171875 433.1000061035156 L 1400 433.1000061035156 L 1400 431.1000061035156 L 1382.0999755859375 431.1000061035156 L 1364.199951171875 461.8999938964844 L 1382.0999755859375 492.79998779296875 L 1400 492.79998779296875 Z" id="XMLID_314_" class="st2" style="fill: rgb(255, 255, 255);" transform="matrix(1, 0, 0, 1, 1.4210854715202004e-14, 7.105427357601002e-15)"/><path id="XMLID_456_" class="st2" d="M1322.8,465.9l-17.8,30.9l17.8,30.9h35.6l17.8-30.9l-17.8-30.9H1322.8z M1357.3,525.7H1324&#10;&#9;&#9;l-16.7-28.9l16.7-28.9h33.3l16.7,28.9L1357.3,525.7z" style="fill: rgb(255, 255, 255);" transform="matrix(1, 0, 0, 1, 1.4210854715202004e-14, 7.105427357601002e-15)"/><path id="XMLID_743_" class="st2" d="M1299.7,431.1H1264l-17.8,30.9l17.8,30.9h35.6l17.8-30.9L1299.7,431.1z M1298.5,490.8h-33.3&#10;&#9;&#9;l-16.7-28.9l16.7-28.9h33.3l16.7,28.9L1298.5,490.8z" style="fill: rgb(255, 255, 255);" transform="matrix(1, 0, 0, 1, 1.4210854715202004e-14, 7.105427357601002e-15)"/><path id="XMLID_928_" class="st2" d="M1204.8,465.9l-17.8,30.9l17.8,30.9h35.6l17.8-30.9l-17.8-30.9H1204.8z M1239.3,525.7h-33.3&#10;&#9;&#9;l-16.7-28.9l16.7-28.9h33.3l16.7,28.9L1239.3,525.7z" style="fill: rgb(255, 255, 255);" transform="matrix(1, 0, 0, 1, 1.4210854715202004e-14, 7.105427357601002e-15)"/><path id="XMLID_931_" class="st2" d="M1181.6,431.1H1146l-17.8,30.9l17.8,30.9h35.6l17.8-30.9L1181.6,431.1z M1180.5,490.8h-33.3&#10;&#9;&#9;l-16.7-28.9l16.7-28.9h33.3l16.7,28.9L1180.5,490.8z" style="fill: rgb(255, 255, 255);" transform="matrix(1, 0, 0, 1, 1.4210854715202004e-14, 7.105427357601002e-15)"/><path id="XMLID_54_" class="st2" d="M1063.6,361.3h-35.6l-17.8,30.9l17.8,30.9h35.6l17.8-30.9L1063.6,361.3z M1062.4,421.1h-33.3&#10;&#9;&#9;l-16.7-28.9l16.7-28.9h33.3l16.7,28.9L1062.4,421.1z" style="fill: rgb(255, 255, 255);" transform="matrix(1, 0, 0, 1, 1.4210854715202004e-14, 7.105427357601002e-15)"/><path id="XMLID_935_" class="st2" d="M1086.7,465.9l-17.8,30.9l17.8,30.9h35.6l17.8-30.9l-17.8-30.9H1086.7z M1121.2,525.7h-33.3&#10;&#9;&#9;l-16.7-28.9l16.7-28.9h33.3l16.7,28.9L1121.2,525.7z" style="fill: rgb(255, 255, 255);" transform="matrix(1, 0, 0, 1, 1.4210854715202004e-14, 7.105427357601002e-15)"/><path id="XMLID_939_" class="st2" d="M1063.6,431.1h-35.6l-17.8,30.9l17.8,30.9h35.6l17.8-30.9L1063.6,431.1z M1062.4,490.8h-33.3&#10;&#9;&#9;l-16.7-28.9l16.7-28.9h33.3l16.7,28.9L1062.4,490.8z" style="fill: rgb(255, 255, 255);" transform="matrix(1, 0, 0, 1, 1.4210854715202004e-14, 7.105427357601002e-15)"/><path id="XMLID_944_" class="st2" d="M968.7,465.9l-17.8,30.9l17.8,30.9h35.6l17.8-30.9l-17.8-30.9H968.7z M1003.2,525.7h-33.3&#10;&#9;&#9;l-16.7-28.9l16.7-28.9h33.3l16.7,28.9L1003.2,525.7z" style="fill: rgb(255, 255, 255);" transform="matrix(1, 0, 0, 1, 1.4210854715202004e-14, 7.105427357601002e-15)"/><path id="XMLID_948_" class="st2" d="M945.5,431.1h-35.6l-17.8,30.9l17.8,30.9h35.6l17.8-30.9L945.5,431.1z M944.4,490.8H911&#10;&#9;&#9;l-16.7-28.9l16.7-28.9h33.3l16.7,28.9L944.4,490.8z" style="fill: rgb(255, 255, 255);" transform="matrix(1, 0, 0, 1, 1.4210854715202004e-14, 7.105427357601002e-15)"/><path id="XMLID_951_" class="st2" d="M850.7,465.9l-17.8,30.9l17.8,30.9h35.6l17.8-30.9l-17.8-30.9H850.7z M885.1,525.7h-33.3&#10;&#9;&#9;l-16.7-28.9l16.7-28.9h33.3l16.7,28.9L885.1,525.7z" style="fill: rgb(255, 255, 255);" transform="matrix(1, 0, 0, 1, 1.4210854715202004e-14, 7.105427357601002e-15)"/><path id="XMLID_955_" class="st2" d="M827.5,431.1h-35.6L774,461.9l17.8,30.9h35.6l17.8-30.9L827.5,431.1z M826.3,490.8H793&#10;&#9;&#9;l-16.7-28.9l16.7-28.9h33.3l16.7,28.9L826.3,490.8z" style="fill: rgb(255, 255, 255);" transform="matrix(1, 0, 0, 1, 1.4210854715202004e-14, 7.105427357601002e-15)"/><path id="XMLID_959_" class="st2" d="M732.6,465.9l-17.8,30.9l17.8,30.9h35.6l17.8-30.9l-17.8-30.9H732.6z M767.1,525.7h-33.3&#10;&#9;&#9;l-16.7-28.9l16.7-28.9h33.3l16.7,28.9L767.1,525.7z" style="fill: rgb(255, 255, 255);" transform="matrix(1, 0, 0, 1, 1.4210854715202004e-14, 7.105427357601002e-15)"/><path id="XMLID_963_" class="st2" d="M709.4,431.1h-35.6L656,461.9l17.8,30.9h35.6l17.8-30.9L709.4,431.1z M708.3,490.8h-33.3&#10;&#9;&#9;l-16.7-28.9l16.7-28.9h33.3l16.7,28.9L708.3,490.8z" style="fill: rgb(255, 255, 255);" transform="matrix(1, 0, 0, 1, 1.4210854715202004e-14, 7.105427357601002e-15)"/><path d="M 1400 560.9000244140625 L 1383.199951171875 560.9000244140625 L 1366.5999755859375 532 L 1383.199951171875 503.1000061035156 L 1400 503.1000061035156 L 1400 501.1000061035156 L 1382.0999755859375 501.1000061035156 L 1364.199951171875 532 L 1382.0999755859375 562.9000244140625 L 1400 562.9000244140625 Z" id="XMLID_315_" class="st2" style="fill: rgb(255, 255, 255);" transform="matrix(1, 0, 0, 1, 1.4210854715202004e-14, 7.105427357601002e-15)"/><path id="XMLID_404_" class="st2" d="M1299.7,501.1H1264l-17.8,30.9l17.8,30.9h35.6l17.8-30.9L1299.7,501.1z M1298.5,560.9h-33.3&#10;&#9;&#9;l-16.7-28.9l16.7-28.9h33.3l16.7,28.9L1298.5,560.9z" style="fill: rgb(255, 255, 255);" transform="matrix(1, 0, 0, 1, 1.4210854715202004e-14, 7.105427357601002e-15)"/><path id="XMLID_401_" class="st2" d="M1181.6,501.1H1146l-17.8,30.9l17.8,30.9h35.6l17.8-30.9L1181.6,501.1z M1180.5,560.9h-33.3&#10;&#9;&#9;l-16.7-28.9l16.7-28.9h33.3l16.7,28.9L1180.5,560.9z" style="fill: rgb(255, 255, 255);" transform="matrix(1, 0, 0, 1, 1.4210854715202004e-14, 7.105427357601002e-15)"/><path id="XMLID_398_" class="st2" d="M1063.6,501.1h-35.6l-17.8,30.9l17.8,30.9h35.6l17.8-30.9L1063.6,501.1z M1062.4,560.9h-33.3&#10;&#9;&#9;l-16.7-28.9l16.7-28.9h33.3l16.7,28.9L1062.4,560.9z" style="fill: rgb(255, 255, 255);" transform="matrix(1, 0, 0, 1, 1.4210854715202004e-14, 7.105427357601002e-15)"/><path id="XMLID_395_" class="st2" d="M945.5,501.1h-35.6L892.1,532l17.8,30.9h35.6l17.8-30.9L945.5,501.1z M944.4,560.9H911&#10;&#9;&#9;L894.4,532l16.7-28.9h33.3L961,532L944.4,560.9z" style="fill: rgb(255, 255, 255);" transform="matrix(1, 0, 0, 1, 1.4210854715202004e-14, 7.105427357601002e-15)"/><path id="XMLID_392_" class="st2" d="M827.5,501.1h-35.6L774,532l17.8,30.9h35.6l17.8-30.9L827.5,501.1z M826.3,560.9H793&#10;&#9;&#9;L776.3,532l16.7-28.9h33.3L843,532L826.3,560.9z" style="fill: rgb(255, 255, 255);" transform="matrix(1, 0, 0, 1, 1.4210854715202004e-14, 7.105427357601002e-15)"/><path id="XMLID_389_" class="st2" d="M709.4,501.1h-35.6L656,532l17.8,30.9h35.6l17.8-30.9L709.4,501.1z M708.3,560.9h-33.3&#10;&#9;&#9;L658.3,532l16.7-28.9h33.3l16.7,28.9L708.3,560.9z" style="fill: rgb(255, 255, 255);" transform="matrix(1, 0, 0, 1, 1.4210854715202004e-14, 7.105427357601002e-15)"/><path id="XMLID_968_" class="st2" d="M614.6,465.9l-17.8,30.9l17.8,30.9h35.6l17.8-30.9l-17.8-30.9H614.6z M649,525.7h-33.3&#10;&#9;&#9;L599,496.8l16.7-28.9H649l16.7,28.9L649,525.7z" style="fill: rgb(255, 255, 255);" transform="matrix(1, 0, 0, 1, 1.4210854715202004e-14, 7.105427357601002e-15)"/><path id="XMLID_1000_" class="st2" d="M1322.8,536l-17.8,30.9l17.8,30.9h35.6l17.8-30.9l-17.8-30.9H1322.8z M1357.3,595.8H1324&#10;&#9;&#9;l-16.7-28.9L1324,538h33.3l16.7,28.9L1357.3,595.8z" style="fill: rgb(255, 255, 255);" transform="matrix(1, 0, 0, 1, 1.4210854715202004e-14, 7.105427357601002e-15)"/><path id="XMLID_997_" class="st2" d="M1204.8,536l-17.8,30.9l17.8,30.9h35.6l17.8-30.9l-17.8-30.9H1204.8z M1239.3,595.8h-33.3&#10;&#9;&#9;l-16.7-28.9l16.7-28.9h33.3l16.7,28.9L1239.3,595.8z" style="fill: rgb(255, 255, 255);" transform="matrix(1, 0, 0, 1, 1.4210854715202004e-14, 7.105427357601002e-15)"/><path id="XMLID_994_" class="st2" d="M1086.7,536l-17.8,30.9l17.8,30.9h35.6l17.8-30.9l-17.8-30.9H1086.7z M1121.2,595.8h-33.3&#10;&#9;&#9;l-16.7-28.9l16.7-28.9h33.3l16.7,28.9L1121.2,595.8z" style="fill: rgb(255, 255, 255);" transform="matrix(1, 0, 0, 1, 1.4210854715202004e-14, 7.105427357601002e-15)"/><path id="XMLID_991_" class="st2" d="M968.7,536l-17.8,30.9l17.8,30.9h35.6l17.8-30.9l-17.8-30.9H968.7z M1003.2,595.8h-33.3&#10;&#9;&#9;l-16.7-28.9l16.7-28.9h33.3l16.7,28.9L1003.2,595.8z" style="fill: rgb(255, 255, 255);" transform="matrix(1, 0, 0, 1, 1.4210854715202004e-14, 7.105427357601002e-15)"/><path id="XMLID_987_" class="st2" d="M850.7,595.8l-17.8,30.9l17.8,30.9h35.6l17.8-30.9l-17.8-30.9H850.7z M885.1,655.5h-33.3&#10;&#9;&#9;l-16.7-28.9l16.7-28.9h33.3l16.7,28.9L885.1,655.5z" style="fill: rgb(255, 255, 255);" transform="matrix(1, 0, 0, 1, 1.4210854715202004e-14, 7.105427357601002e-15)"/><path id="XMLID_208_" class="st2" d="M380,427.1l-17.8,30.9l17.8,30.9h35.6l17.8-30.9l-17.8-30.9H380z M414.5,486.8h-33.3&#10;&#9;&#9;l-16.7-28.9l16.7-28.9h33.3l16.7,28.9L414.5,486.8z" style="fill: rgb(255, 255, 255);" transform="matrix(1, 0, 0, 1, 1.4210854715202004e-14, 7.105427357601002e-15)"/><path id="XMLID_211_" class="st2" d="M321.3,391.3l-17.8,30.9l17.8,30.9H357l17.8-30.9L357,391.3H321.3z M355.8,451.1h-33.3&#10;&#9;&#9;l-16.7-28.9l16.7-28.9h33.3l16.7,28.9L355.8,451.1z" style="fill: rgb(255, 255, 255);" transform="matrix(1, 0, 0, 1, 1.4210854715202004e-14, 7.105427357601002e-15)"/><path id="XMLID_219_" class="st2" d="M179.8,439.4L162,470.3l17.8,30.9h35.6l17.8-30.9l-17.8-30.9H179.8z M214.3,499.1H181&#10;&#9;&#9;l-16.7-28.9l16.7-28.9h33.3l16.7,28.9L214.3,499.1z" style="fill: rgb(255, 255, 255);" transform="matrix(1, 0, 0, 1, 1.4210854715202004e-14, 7.105427357601002e-15)"/><path id="XMLID_984_" class="st2" d="M732.6,536l-17.8,30.9l17.8,30.9h35.6l17.8-30.9L768.2,536H732.6z M767.1,595.8h-33.3&#10;&#9;&#9;l-16.7-28.9l16.7-28.9h33.3l16.7,28.9L767.1,595.8z" style="fill: rgb(255, 255, 255);" transform="matrix(1, 0, 0, 1, 1.4210854715202004e-14, 7.105427357601002e-15)"/><path id="XMLID_205_" class="st2" d="M460.2,532h-35.6l-17.8,30.9l17.8,30.9h35.6l17.8-30.9L460.2,532z M459.1,591.7h-33.3&#10;&#9;&#9;l-16.7-28.9l16.7-28.9h33.3l16.7,28.9L459.1,591.7z" style="fill: rgb(255, 255, 255);" transform="matrix(1, 0, 0, 1, 1.4210854715202004e-14, 7.105427357601002e-15)"/><path id="XMLID_202_" class="st2" d="M483.4,626.6l-17.8,30.9l17.8,30.9h35.6l17.8-30.9l-17.8-30.9H483.4z M517.9,686.4h-33.3&#10;&#9;&#9;l-16.7-28.9l16.7-28.9h33.3l16.7,28.9L517.9,686.4z" style="fill: rgb(255, 255, 255);" transform="matrix(1, 0, 0, 1, 1.4210854715202004e-14, 7.105427357601002e-15)"/><path id="XMLID_199_" class="st2" d="M408,649.2L390.1,680l17.8,30.9h35.6l17.8-30.9l-17.8-30.9H408z M442.4,708.9h-33.3L392.4,680&#10;&#9;&#9;l16.7-28.9h33.3l16.7,28.9L442.4,708.9z" style="fill: rgb(255, 255, 255);" transform="matrix(1, 0, 0, 1, 1.4210854715202004e-14, 7.105427357601002e-15)"/><path id="XMLID_429_" class="st2" d="M614.6,536l-17.8,30.9l17.8,30.9h35.6l17.8-30.9L650.2,536H614.6z M649,595.8h-33.3L599,566.9&#10;&#9;&#9;l16.7-28.9H649l16.7,28.9L649,595.8z" style="fill: rgb(255, 255, 255);" transform="matrix(1, 0, 0, 1, 1.4210854715202004e-14, 7.105427357601002e-15)"/><path id="XMLID_386_" class="st2" d="M1322.8,396.2l-17.8,30.9l17.8,30.9h35.6l17.8-30.9l-17.8-30.9H1322.8z M1357.3,455.9H1324&#10;&#9;&#9;l-16.7-28.9l16.7-28.9h33.3l16.7,28.9L1357.3,455.9z" style="fill: rgb(255, 255, 255);" transform="matrix(1, 0, 0, 1, 1.4210854715202004e-14, 7.105427357601002e-15)"/><path d="M 1400 390.20001220703125 L 1383.199951171875 390.20001220703125 L 1366.5999755859375 361.29998779296875 L 1383.199951171875 332.5 L 1400 332.5 L 1400 330.5 L 1382.0999755859375 330.5 L 1364.199951171875 361.29998779296875 L 1382.0999755859375 392.20001220703125 L 1400 392.20001220703125 Z" id="XMLID_313_" class="st2" style="fill: rgb(255, 255, 255);" transform="matrix(1, 0, 0, 1, 1.4210854715202004e-14, 7.105427357601002e-15)"/><path id="XMLID_383_" class="st2" d="M1204.8,396.2l-17.8,30.9l17.8,30.9h35.6l17.8-30.9l-17.8-30.9H1204.8z M1239.3,455.9h-33.3&#10;&#9;&#9;l-16.7-28.9l16.7-28.9h33.3l16.7,28.9L1239.3,455.9z" style="fill: rgb(255, 255, 255);" transform="matrix(1, 0, 0, 1, 1.4210854715202004e-14, 7.105427357601002e-15)"/><path id="XMLID_380_" class="st2" d="M1086.7,396.2l-17.8,30.9l17.8,30.9h35.6l17.8-30.9l-17.8-30.9H1086.7z M1121.2,455.9h-33.3&#10;&#9;&#9;l-16.7-28.9l16.7-28.9h33.3l16.7,28.9L1121.2,455.9z" style="fill: rgb(255, 255, 255);" transform="matrix(1, 0, 0, 1, 1.4210854715202004e-14, 7.105427357601002e-15)"/><path id="XMLID_376_" class="st2" d="M968.7,396.2l-17.8,30.9l17.8,30.9h35.6l17.8-30.9l-17.8-30.9H968.7z M1003.2,455.9h-33.3&#10;&#9;&#9;l-16.7-28.9l16.7-28.9h33.3l16.7,28.9L1003.2,455.9z" style="fill: rgb(255, 255, 255);" transform="matrix(1, 0, 0, 1, 1.4210854715202004e-14, 7.105427357601002e-15)"/><path id="XMLID_373_" class="st2" d="M850.7,396.2l-17.8,30.9l17.8,30.9h35.6l17.8-30.9l-17.8-30.9H850.7z M885.1,455.9h-33.3&#10;&#9;&#9;l-16.7-28.9l16.7-28.9h33.3l16.7,28.9L885.1,455.9z" style="fill: rgb(255, 255, 255);" transform="matrix(1, 0, 0, 1, 1.4210854715202004e-14, 7.105427357601002e-15)"/><path id="XMLID_370_" class="st2" d="M523.7,501.1L505.8,532l17.8,30.9h35.6l17.8-30.9l-17.8-30.9H523.7z M558.2,560.9h-33.3&#10;&#9;&#9;L508.2,532l16.7-28.9h33.3l16.7,28.9L558.2,560.9z" style="fill: rgb(255, 255, 255);" transform="matrix(1, 0, 0, 1, 1.4210854715202004e-14, 7.105427357601002e-15)"/><path id="XMLID_366_" class="st2" d="M614.6,396.2l-17.8,30.9l17.8,30.9h35.6l17.8-30.9l-17.8-30.9H614.6z M649,455.9h-33.3&#10;&#9;&#9;L599,427.1l16.7-28.9H649l16.7,28.9L649,455.9z" style="fill: rgb(255, 255, 255);" transform="matrix(1, 0, 0, 1, 1.4210854715202004e-14, 7.105427357601002e-15)"/><path d="M 0 302 L 0 612.5999755859375 L 89.69999694824219 612.5999755859375 L 179.3000030517578 457.29998779296875 L 89.69999694824219 302 Z" id="XMLID_310_" class="st2" style="fill: rgb(255, 255, 255);" transform="matrix(1, 0, 0, 1, 1.4210854715202004e-14, 7.105427357601002e-15)"/><radialGradient id="XMLID_3_" cx="-0.9946" cy="457.3235" r="166.0031" gradientTransform="matrix(1 0 0 0.8453 0 70.745)" gradientUnits="userSpaceOnUse">
		<stop offset="0" style="stop-color:#D1D3D4"/>
		<stop offset="0.195" style="stop-color:#CBCDCF"/>
		<stop offset="0.5112" style="stop-color:#C9CACC"/>
		<stop offset="0.6853" style="stop-color:#C6C8CA"/>
		<stop offset="0.8187" style="stop-color:#BEC0C2"/>
		<stop offset="0.9381" style="stop-color:#B1B3B5"/>
		<stop offset="1" style="stop-color:#A7A9AC"/>
	</radialGradient><path d="M 0 317 L 0 597.5999755859375 L 81 597.5999755859375 L 162 457.29998779296875 L 81 317 Z" id="XMLID_311_" class="st9" style="fill: url('#XMLID_3_');" transform="matrix(1, 0, 0, 1, 1.4210854715202004e-14, 7.105427357601002e-15)"/><path d="M 0 640.5999755859375 L 0 951.2000122070312 L 89.69999694824219 951.2000122070312 L 179.3000030517578 795.9000244140625 L 89.69999694824219 640.5999755859375 Z" id="XMLID_309_" class="st2" style="fill: rgb(255, 255, 255);" transform="matrix(1, 0, 0, 1, 1.4210854715202004e-14, 7.105427357601002e-15)"/><radialGradient id="XMLID_4_" cx="0" cy="793" r="155.2063" gradientUnits="userSpaceOnUse">
		<stop offset="0" style="stop-color:#D1D3D4"/>
		<stop offset="0.195" style="stop-color:#CBCDCF"/>
		<stop offset="0.5112" style="stop-color:#C9CACC"/>
		<stop offset="0.6853" style="stop-color:#C6C8CA"/>
		<stop offset="0.8187" style="stop-color:#BEC0C2"/>
		<stop offset="0.9381" style="stop-color:#B1B3B5"/>
		<stop offset="1" style="stop-color:#A7A9AC"/>
	</radialGradient><path d="M 0 655.5999755859375 L 0 936.2000122070312 L 81 936.2000122070312 L 162 795.9000244140625 L 81 655.5999755859375 Z" id="XMLID_312_" class="st10" style="fill: url('#XMLID_4_');" transform="matrix(1, 0, 0, 1, 1.4210854715202004e-14, 7.105427357601002e-15)"/><path d="M 487.5 612.5999755859375 L 397.79998779296875 457.29998779296875 L 487.5 302 L 666.7999877929688 302 L 756.5 457.29998779296875 L 666.7999877929688 612.5999755859375 Z" id="XMLID_969_" class="st2" style="fill: rgb(255, 255, 255);" transform="matrix(1, 0, 0, 1, 1.4210854715202004e-14, 7.105427357601002e-15)"/><radialGradient id="XMLID_5_" cx="577.1245" cy="457.3235" r="151.5467" gradientUnits="userSpaceOnUse">
		<stop offset="0" style="stop-color:#D1D3D4"/>
		<stop offset="0.195" style="stop-color:#CBCDCF"/>
		<stop offset="0.5112" style="stop-color:#C9CACC"/>
		<stop offset="0.6853" style="stop-color:#C6C8CA"/>
		<stop offset="0.8187" style="stop-color:#BEC0C2"/>
		<stop offset="0.9381" style="stop-color:#B1B3B5"/>
		<stop offset="1" style="stop-color:#A7A9AC"/>
	</radialGradient><path d="M 496.1000061035156 597.5999755859375 L 415.1000061035156 457.29998779296875 L 496.1000061035156 317 L 658.0999755859375 317 L 739.0999755859375 457.29998779296875 L 658.0999755859375 597.5999755859375 Z" id="XMLID_196_" class="st11" style="fill: url('#XMLID_5_');" transform="matrix(1, 0, 0, 1, 1.4210854715202004e-14, 7.105427357601002e-15)"/><path d="M 201.1999969482422 781.9000244140625 L 111.5 626.5999755859375 L 201.1999969482422 471.29998779296875 L 380.5 471.29998779296875 L 470.20001220703125 626.5999755859375 L 380.5 781.9000244140625 Z" id="XMLID_518_" class="st2" style="fill: rgb(255, 255, 255);" transform="matrix(1, 0, 0, 1, 1.4210854715202004e-14, 7.105427357601002e-15)"/><radialGradient id="XMLID_6_" cx="290.8335" cy="626.625" r="151.5468" gradientUnits="userSpaceOnUse">
		<stop offset="0" style="stop-color:#D1D3D4"/>
		<stop offset="0.195" style="stop-color:#CBCDCF"/>
		<stop offset="0.5112" style="stop-color:#C9CACC"/>
		<stop offset="0.6853" style="stop-color:#C6C8CA"/>
		<stop offset="0.8187" style="stop-color:#BEC0C2"/>
		<stop offset="0.9381" style="stop-color:#B1B3B5"/>
		<stop offset="1" style="stop-color:#A7A9AC"/>
	</radialGradient><path d="M 209.8000030517578 766.9000244140625 L 128.8000030517578 626.5999755859375 L 209.8000030517578 486.29998779296875 L 371.79998779296875 486.29998779296875 L 452.79998779296875 626.5999755859375 L 371.79998779296875 766.9000244140625 Z" id="XMLID_129_" class="st12" style="fill: url('#XMLID_6_');" transform="matrix(1, 0, 0, 1, 1.4210854715202004e-14, 7.105427357601002e-15)"/><path d="M 944.7000122070312 574.4000244140625 L 939.7999877929688 565.7999877929688 L 944.7000122070312 557.2999877929688 L 954.5999755859375 557.2999877929688 L 959.5999755859375 565.7999877929688 L 954.5999755859375 574.4000244140625 Z" id="XMLID_41_" class="st2" style="fill: rgb(255, 255, 255);" transform="matrix(1, 0, 0, 1, 1.4210854715202004e-14, 7.105427357601002e-15)"/><path d="M 236.1999969482422 441.6000061035156 L 231.1999969482422 433.1000061035156 L 236.1999969482422 424.5 L 246.10000610351562 424.5 L 251 433.1000061035156 L 246.10000610351562 441.6000061035156 Z" id="XMLID_124_" class="st2" style="fill: rgb(255, 255, 255);" transform="matrix(1, 0, 0, 1, 1.4210854715202004e-14, 7.105427357601002e-15)"/><path d="M 159.39999389648438 323.70001220703125 L 154.39999389648438 315.20001220703125 L 159.39999389648438 306.6000061035156 L 169.3000030517578 306.6000061035156 L 174.1999969482422 315.20001220703125 L 169.3000030517578 323.70001220703125 Z" id="XMLID_125_" class="st2" style="fill: rgb(255, 255, 255);" transform="matrix(1, 0, 0, 1, 1.4210854715202004e-14, 7.105427357601002e-15)"/><path d="M 1014.9000244140625 506.79998779296875 L 1010 498.20001220703125 L 1014.9000244140625 489.70001220703125 L 1024.800048828125 489.70001220703125 L 1029.699951171875 498.20001220703125 L 1024.800048828125 506.79998779296875 Z" id="XMLID_46_" class="st2" style="fill: rgb(255, 255, 255);" transform="matrix(1, 0, 0, 1, 1.4210854715202004e-14, 7.105427357601002e-15)"/><path d="M 410.20001220703125 382 L 405.20001220703125 373.5 L 410.20001220703125 364.8999938964844 L 420.1000061035156 364.8999938964844 L 425 373.5 L 420.1000061035156 382 Z" id="XMLID_122_" class="st2" style="fill: rgb(255, 255, 255);" transform="matrix(1, 0, 0, 1, 1.4210854715202004e-14, 7.105427357601002e-15)"/><path d="M 1199.9000244140625 474.5 L 1195 465.8999938964844 L 1199.9000244140625 457.3999938964844 L 1209.800048828125 457.3999938964844 L 1214.800048828125 465.8999938964844 L 1209.800048828125 474.5 Z" id="XMLID_47_" class="st2" style="fill: rgb(255, 255, 255);" transform="matrix(1, 0, 0, 1, 1.4210854715202004e-14, 7.105427357601002e-15)"/><path d="M 1276.9000244140625 569.4000244140625 L 1272 560.9000244140625 L 1276.9000244140625 552.2999877929688 L 1286.800048828125 552.2999877929688 L 1291.699951171875 560.9000244140625 L 1286.800048828125 569.4000244140625 Z" id="XMLID_48_" class="st2" style="fill: rgb(255, 255, 255);" transform="matrix(1, 0, 0, 1, 1.4210854715202004e-14, 7.105427357601002e-15)"/><path d="M 906.7000122070312 621.2000122070312 L 901.7999877929688 612.5999755859375 L 906.7000122070312 604.0999755859375 L 916.5999755859375 604.0999755859375 L 921.5999755859375 612.5999755859375 L 916.5999755859375 621.2000122070312 Z" id="XMLID_43_" class="st2" style="fill: rgb(255, 255, 255);" transform="matrix(1, 0, 0, 1, 1.4210854715202004e-14, 7.105427357601002e-15)"/><path d="M 1115.5999755859375 623.4000244140625 L 1110.699951171875 614.9000244140625 L 1115.5999755859375 606.2999877929688 L 1125.5 606.2999877929688 L 1130.5 614.9000244140625 L 1125.5 623.4000244140625 Z" id="XMLID_49_" class="st2" style="fill: rgb(255, 255, 255);" transform="matrix(1, 0, 0, 1, 1.4210854715202004e-14, 7.105427357601002e-15)"/><path d="M 1351.699951171875 390.5 L 1346.800048828125 382 L 1351.699951171875 373.3999938964844 L 1361.5999755859375 373.3999938964844 L 1366.5999755859375 382 L 1361.5999755859375 390.5 Z" id="XMLID_50_" class="st2" style="fill: rgb(255, 255, 255);" transform="matrix(1, 0, 0, 1, 1.4210854715202004e-14, 7.105427357601002e-15)"/><path d="M 863.5 536.2000122070312 L 858.5999755859375 527.7000122070312 L 863.5 519.0999755859375 L 873.4000244140625 519.0999755859375 L 878.2999877929688 527.7000122070312 L 873.4000244140625 536.2000122070312 Z" id="XMLID_44_" class="st2" style="fill: rgb(255, 255, 255);" transform="matrix(1, 0, 0, 1, 1.4210854715202004e-14, 7.105427357601002e-15)"/><path d="M 734.2000122070312 377.20001220703125 L 729.2999877929688 368.70001220703125 L 734.2000122070312 360.1000061035156 L 744.0999755859375 360.1000061035156 L 749 368.70001220703125 L 744.0999755859375 377.20001220703125 Z" id="XMLID_51_" class="st2" style="fill: rgb(255, 255, 255);" transform="matrix(1, 0, 0, 1, 1.4210854715202004e-14, 7.105427357601002e-15)"/><path d="M 691.2999877929688 623.4000244140625 L 686.2999877929688 614.9000244140625 L 691.2999877929688 606.2999877929688 L 701.0999755859375 606.2999877929688 L 706.0999755859375 614.9000244140625 L 701.0999755859375 623.4000244140625 Z" id="XMLID_45_" class="st2" style="fill: rgb(255, 255, 255);" transform="matrix(1, 0, 0, 1, 1.4210854715202004e-14, 7.105427357601002e-15)"/><path d="M 420.1000061035156 755.4000244140625 L 415.1000061035156 746.7999877929688 L 420.1000061035156 738.2999877929688 L 429.8999938964844 738.2999877929688 L 434.8999938964844 746.7999877929688 L 429.8999938964844 755.4000244140625 Z" id="XMLID_123_" class="st2" style="fill: rgb(255, 255, 255);" transform="matrix(1, 0, 0, 1, 1.4210854715202004e-14, 7.105427357601002e-15)"/>
</svg>